<svg width="16" height="15" viewBox="0 0 16 15" fill="none" xmlns="http://www.w3.org/2000/svg">
<path d="M13.6432 3.375C13.6432 3.99632 13.1315 4.5 12.5003 4.5C11.869 4.5 11.3573 3.99632 11.3573 3.375C11.3573 2.75368 11.869 2.25 12.5003 2.25C13.1315 2.25 13.6432 2.75368 13.6432 3.375Z" fill="white"/>
<path fill-rule="evenodd" clip-rule="evenodd" d="M8.30937 11.25C10.4135 11.25 12.1193 9.57107 12.1193 7.5C12.1193 5.42893 10.4135 3.75 8.30937 3.75C6.20522 3.75 4.49947 5.42893 4.49947 7.5C4.49947 9.57107 6.20522 11.25 8.30937 11.25ZM8.30937 9.75C9.57186 9.75 10.5953 8.74264 10.5953 7.5C10.5953 6.25736 9.57186 5.25 8.30937 5.25C7.04688 5.25 6.02343 6.25736 6.02343 7.5C6.02343 8.74264 7.04688 9.75 8.30937 9.75Z" fill="white"/>
<path fill-rule="evenodd" clip-rule="evenodd" d="M0.689575 7.2C0.689575 4.67976 0.689575 3.41965 1.18788 2.45704C1.6262 1.61031 2.32561 0.921901 3.18586 0.490471C4.16384 0 5.44409 0 8.00458 0H8.61416C11.1746 0 12.4549 0 13.4329 0.490471C14.2931 0.921901 14.9925 1.61031 15.4309 2.45704C15.9292 3.41965 15.9292 4.67976 15.9292 7.2V7.8C15.9292 10.3202 15.9292 11.5804 15.4309 12.543C14.9925 13.3897 14.2931 14.0781 13.4329 14.5095C12.4549 15 11.1746 15 8.61416 15H8.00458C5.44409 15 4.16384 15 3.18586 14.5095C2.32561 14.0781 1.6262 13.3897 1.18788 12.543C0.689575 11.5804 0.689575 10.3202 0.689575 7.8V7.2ZM8.00458 1.5H8.61416C9.91955 1.5 10.8069 1.50117 11.4929 1.55633C12.161 1.61006 12.5027 1.70745 12.741 1.82698C13.3145 2.1146 13.7808 2.57354 14.073 3.13803C14.1944 3.37263 14.2934 3.70893 14.348 4.36656C14.404 5.04169 14.4052 5.91513 14.4052 7.2V7.8C14.4052 9.08487 14.404 9.95831 14.348 10.6334C14.2934 11.2911 14.1944 11.6274 14.073 11.862C13.7808 12.4265 13.3145 12.8854 12.741 13.173C12.5027 13.2926 12.161 13.3899 11.4929 13.4437C10.8069 13.4988 9.91955 13.5 8.61416 13.5H8.00458C6.69918 13.5 5.81179 13.4988 5.12588 13.4437C4.45775 13.3899 4.11607 13.2926 3.87773 13.173C3.30422 12.8854 2.83795 12.4265 2.54574 11.862C2.42429 11.6274 2.32535 11.2911 2.27076 10.6334C2.21472 9.95831 2.21353 9.08487 2.21353 7.8V7.2C2.21353 5.91513 2.21472 5.04169 2.27076 4.36656C2.32535 3.70893 2.42429 3.37263 2.54574 3.13803C2.83795 2.57354 3.30422 2.1146 3.87773 1.82698C4.11607 1.70745 4.45775 1.61006 5.12588 1.55633C5.81179 1.50117 6.69918 1.5 8.00458 1.5Z" fill="white"/>
</svg>
