<svg width="16" height="15" viewBox="0 0 16 15" fill="none" xmlns="http://www.w3.org/2000/svg">
<path d="M3.83883 1.81302C3.83883 2.81432 3.01585 3.62603 2.00065 3.62603C0.985455 3.62603 0.162476 2.81432 0.162476 1.81302C0.162476 0.811715 0.985455 0 2.00065 0C3.01585 0 3.83883 0.811715 3.83883 1.81302Z" fill="white"/>
<path d="M0.41385 4.95868H3.55603V15H0.41385V4.95868Z" fill="white"/>
<path d="M8.61495 4.95868H5.47276V15H8.61495C8.61495 15 8.61495 11.8388 8.61495 9.86235C8.61495 8.67602 8.99905 7.4845 10.5317 7.4845C12.2637 7.4845 12.2533 9.037 12.2452 10.2397C12.2347 11.8119 12.2599 13.4163 12.2599 15H15.4021V9.70041C15.3754 6.31647 14.5393 4.75723 11.7886 4.75723C10.155 4.75723 9.14236 5.53935 8.61495 6.24696V4.95868Z" fill="white"/>
</svg>
