<svg width="32" height="28" viewBox="0 0 32 28" fill="none" xmlns="http://www.w3.org/2000/svg">
<path d="M13.6682 1.23505V6.26199C13.6682 6.94407 13.1089 7.49652 12.4193 7.49652C9.95855 7.49652 8.61986 9.99114 8.43406 14.9155H12.4193C13.1088 14.9155 13.6682 15.4688 13.6682 16.1501V26.7647C13.6682 27.4465 13.1089 27.999 12.4193 27.999H1.79414C1.10472 27.999 0.545126 27.4459 0.545126 26.7647V16.15C0.545126 13.7896 0.786198 11.6235 1.25944 9.71055C1.7456 7.74949 2.49186 6.035 3.47702 4.61422C4.4902 3.15417 5.75869 2.00845 7.24503 1.21054C8.74263 0.407543 10.4835 0 12.4198 0C13.1088 0.000516891 13.6682 0.553486 13.6682 1.23505ZM29.7756 7.49696C30.4651 7.49696 31.0243 6.94407 31.0243 6.26294V1.23497C31.0243 0.553488 30.4651 0.000951767 29.7756 0.000951767C27.8402 0.000951767 26.0985 0.408579 24.6019 1.21149C23.1148 2.00931 21.8464 3.15408 20.8333 4.61517C19.8476 6.03595 19.1014 7.75052 18.6152 9.71254C18.1417 11.6255 17.9012 13.7917 17.9012 16.151V26.7657C17.9012 27.4476 18.4609 28 19.1501 28H29.7756C30.4651 28 31.0243 27.447 31.0243 26.7657V16.151C31.0243 15.4693 30.4651 14.9165 29.7756 14.9165H25.8463C26.0299 9.99165 27.3493 7.49696 29.7756 7.49696Z" fill="#634700"/>
</svg>
